<?xml version="1.0" standalone="no"?>
<!DOCTYPE svg PUBLIC "-//W3C//DTD SVG 20010904//EN"
 "http://www.w3.org/TR/2001/REC-SVG-20010904/DTD/svg10.dtd">
<svg version="1.0" xmlns="http://www.w3.org/2000/svg"
 width="153.000000pt" height="153.000000pt" viewBox="0 0 153.000000 153.000000"
 preserveAspectRatio="xMidYMid meet">
<metadata>
Created by potrace 1.14, written by Peter Selinger 2001-2017
</metadata>
<g transform="translate(0.000000,153.000000) scale(0.100000,-0.100000)"
fill="#000000" stroke="none">
<path d="M360 1362 c-30 -26 -58 -51 -62 -57 -3 -5 -25 -30 -47 -55 -22 -25
-41 -50 -41 -57 0 -6 -6 -18 -13 -25 -12 -12 -30 -51 -58 -123 -16 -39 -20
-56 -35 -160 -3 -22 -8 -43 -11 -47 -2 -5 0 -8 6 -8 7 0 7 -8 1 -25 -5 -14 -6
-25 -2 -25 4 0 8 -21 10 -47 7 -125 83 -287 184 -393 85 -90 228 -178 317
-196 7 -1 36 -8 65 -15 28 -7 92 -12 141 -12 194 1 366 76 512 223 25 25 103
134 103 144 0 3 -22 -8 -50 -24 -27 -16 -50 -27 -50 -24 0 4 -6 2 -13 -4 -27
-22 -180 -32 -278 -18 -26 3 -84 20 -130 37 -46 17 -85 30 -86 30 -2 -1 -4 -1
-5 0 -34 10 -166 18 -174 10 -2 -3 -14 -6 -25 -8 -28 -4 -76 -32 -109 -63 -28
-28 -45 -60 -30 -60 5 0 11 -8 14 -18 5 -15 119 -93 165 -114 10 -4 11 -7 3
-7 -7 -1 -20 3 -30 8 -9 5 -35 17 -57 27 -125 59 -227 149 -297 264 -40 67
-79 158 -85 200 -1 8 -4 26 -7 40 -16 73 -9 217 12 285 1 3 2 6 3 8 0 1 2 11
4 22 14 71 98 207 177 286 33 32 45 50 36 49 -2 0 -28 -22 -58 -48z"/>
<path d="M1141 1237 c-6 -7 -11 -28 -13 -45 -3 -37 -19 -57 -108 -132 -36 -30
-70 -62 -77 -70 -9 -12 -14 -13 -24 -2 -15 14 -85 16 -94 2 -7 -11 3 -13 58
-11 20 1 37 0 37 -2 0 -2 -45 -49 -101 -105 l-100 -101 -57 5 c-66 5 -175 29
-205 45 -46 24 -57 39 -45 65 6 13 17 24 24 24 18 0 24 13 14 30 -7 12 -17 10
-59 -10 -29 -13 -54 -32 -57 -44 -10 -29 -11 -137 -2 -157 4 -9 9 -29 12 -45
9 -50 59 -135 109 -186 l48 -49 30 22 c87 62 254 62 404 0 11 -5 32 -13 47
-19 15 -6 61 -14 102 -18 l74 -7 45 37 c89 73 154 199 160 310 3 50 2 54 -14
45 -23 -12 -29 -11 -29 2 0 5 4 8 10 4 5 -3 16 8 25 25 9 17 11 30 5 30 -5 0
-10 6 -10 13 0 26 -131 77 -183 71 -15 -1 -27 0 -27 4 0 12 75 107 85 108 40
5 75 19 75 30 0 15 -102 119 -131 135 -11 6 -21 4 -28 -4z m4 -287 c4 -6 12
-10 18 -8 7 1 29 -6 51 -15 21 -9 42 -17 46 -17 4 0 12 -11 18 -25 10 -22 8
-27 -21 -48 -39 -29 -119 -50 -230 -61 l-37 -4 17 23 c10 12 39 50 66 83 26
33 47 65 47 71 0 14 17 14 25 1z"/>
<path d="M498 1132 c-55 -83 -59 -154 -13 -208 14 -16 23 -34 20 -41 -2 -7 0
-15 5 -18 6 -4 10 -2 10 3 0 12 113 72 136 72 10 0 -8 -16 -41 -37 -80 -50
-93 -62 -74 -74 15 -9 15 -9 69 -13 121 -9 199 77 202 224 1 40 -1 44 -19 28
-31 -27 -64 -40 -119 -47 -38 -5 -54 -4 -54 4 0 6 -16 26 -35 45 -19 18 -37
46 -40 61 -10 43 -20 43 -47 1z m98 -125 c-11 -7 -28 -20 -38 -29 -10 -10 -18
-15 -18 -10 0 13 15 27 40 39 32 15 40 15 16 0z"/>
</g>
</svg>
